<svg width="50" height="50" xmlns="http://www.w3.org/2000/svg" xmlns:xlink="http://www.w3.org/1999/xlink" xml:space="preserve" overflow="hidden"><g transform="translate(-187 -604)"><path d="M187 607.125C187 605.396 188.396 604 190.125 604L233.875 604C235.604 604 237 605.396 237 607.125 237 608.854 235.604 610.25 233.875 610.25L233.875 647.75C235.604 647.75 237 649.146 237 650.875 237 652.604 235.604 654 233.875 654L216.688 654 216.688 649.312C216.688 646.725 214.588 644.625 212 644.625 209.412 644.625 207.312 646.725 207.312 649.312L207.312 654 190.125 654C188.396 654 187 652.604 187 650.875 187 649.146 188.396 647.75 190.125 647.75L190.125 610.25C188.396 610.25 187 608.854 187 607.125ZM196.375 614.938 196.375 618.062C196.375 618.922 197.078 619.625 197.938 619.625L201.062 619.625C201.922 619.625 202.625 618.922 202.625 618.062L202.625 614.938C202.625 614.078 201.922 613.375 201.062 613.375L197.938 613.375C197.078 613.375 196.375 614.078 196.375 614.938ZM210.438 613.375C209.578 613.375 208.875 614.078 208.875 614.938L208.875 618.062C208.875 618.922 209.578 619.625 210.438 619.625L213.562 619.625C214.422 619.625 215.125 618.922 215.125 618.062L215.125 614.938C215.125 614.078 214.422 613.375 213.562 613.375L210.438 613.375ZM221.375 614.938 221.375 618.062C221.375 618.922 222.078 619.625 222.938 619.625L226.062 619.625C226.922 619.625 227.625 618.922 227.625 618.062L227.625 614.938C227.625 614.078 226.922 613.375 226.062 613.375L222.938 613.375C222.078 613.375 221.375 614.078 221.375 614.938ZM197.938 622.75C197.078 622.75 196.375 623.453 196.375 624.312L196.375 627.438C196.375 628.297 197.078 629 197.938 629L201.062 629C201.922 629 202.625 628.297 202.625 627.438L202.625 624.312C202.625 623.453 201.922 622.75 201.062 622.75L197.938 622.75ZM208.875 624.312 208.875 627.438C208.875 628.297 209.578 629 210.438 629L213.562 629C214.422 629 215.125 628.297 215.125 627.438L215.125 624.312C215.125 623.453 214.422 622.75 213.562 622.75L210.438 622.75C209.578 622.75 208.875 623.453 208.875 624.312ZM222.938 622.75C222.078 622.75 221.375 623.453 221.375 624.312L221.375 627.438C221.375 628.297 222.078 629 222.938 629L226.062 629C226.922 629 227.625 628.297 227.625 627.438L227.625 624.312C227.625 623.453 226.922 622.75 226.062 622.75L222.938 622.75ZM219.031 641.5C220.33 641.5 221.404 640.436 221.082 639.176 220.047 635.123 216.375 632.125 212 632.125 207.625 632.125 203.943 635.123 202.918 639.176 202.596 640.426 203.68 641.5 204.969 641.5L219.031 641.5Z" fill="#FFFFFF"/></g></svg>