<svg width="345" height="346" xmlns="http://www.w3.org/2000/svg" xmlns:xlink="http://www.w3.org/1999/xlink" xml:space="preserve" overflow="hidden"><g transform="translate(-3692 -221)"><path d="M3702.5 394C3702.5 304.254 3775.03 231.5 3864.5 231.5 3953.97 231.5 4026.5 304.254 4026.5 394 4026.5 483.746 3953.97 556.5 3864.5 556.5 3775.03 556.5 3702.5 483.746 3702.5 394Z" stroke="#000000" stroke-width="20.625" stroke-miterlimit="8" fill="#BD91BD" fill-rule="evenodd"/><g><g><g><g><path d="M3903.47 317.104C3908.51 311.326 3915.8 308 3923.46 308 3938.11 308 3950 319.892 3950 334.539 3950 342.198 3946.67 349.522 3940.9 354.561L3871.29 415.164 3867.83 411.704 3846.33 390.204 3842.84 386.71 3903.47 317.104ZM3835.21 394.302 3838.7 397.796 3860.2 419.296 3863.7 422.79 3857.25 450.807C3855.94 456.551 3851.57 461.12 3845.89 462.699L3786.2 479.429 3818.25 447.38C3819.12 447.616 3820.06 447.75 3821.03 447.75 3826.98 447.75 3831.78 442.946 3831.78 437 3831.78 431.054 3826.98 426.25 3821.03 426.25 3815.09 426.25 3810.28 431.054 3810.28 437 3810.28 437.974 3810.42 438.881 3810.65 439.788L3778.57 471.803 3795.3 412.141C3796.88 406.463 3801.45 402.096 3807.19 400.786L3835.21 394.336Z" fill="#FFFFFF"/></g></g></g></g></g></svg>