<svg width="346" height="346" xmlns="http://www.w3.org/2000/svg" xmlns:xlink="http://www.w3.org/1999/xlink" xml:space="preserve" overflow="hidden"><g transform="translate(-2686 -1232)"><path d="M2696.5 1405C2696.5 1315.25 2769.25 1242.5 2859 1242.5 2948.75 1242.5 3021.5 1315.25 3021.5 1405 3021.5 1494.75 2948.75 1567.5 2859 1567.5 2769.25 1567.5 2696.5 1494.75 2696.5 1405Z" stroke="#000000" stroke-width="20.625" stroke-miterlimit="8" fill="#DA8D39" fill-rule="evenodd"/><g><g><g><g><path d="M2858 1329.75C2836.5 1329.75 2772 1340.5 2772 1383.5 2772 1395.36 2781.64 1405 2793.5 1405L2793.5 1464.12C2793.5 1473.03 2800.72 1480.25 2809.62 1480.25L2906.38 1480.25C2915.28 1480.25 2922.5 1473.03 2922.5 1464.12L2922.5 1405C2934.36 1405 2944 1395.36 2944 1383.5 2944 1340.5 2879.5 1329.75 2858 1329.75Z" fill="#FFFFFF"/></g></g></g></g></g></svg>