<svg width="345" height="346" xmlns="http://www.w3.org/2000/svg" xmlns:xlink="http://www.w3.org/1999/xlink" xml:space="preserve" overflow="hidden"><g transform="translate(-3310 -221)"><path d="M3320.5 394C3320.5 304.254 3393.03 231.5 3482.5 231.5 3571.97 231.5 3644.5 304.254 3644.5 394 3644.5 483.746 3571.97 556.5 3482.5 556.5 3393.03 556.5 3320.5 483.746 3320.5 394Z" stroke="#000000" stroke-width="20.625" stroke-miterlimit="8" fill="#7B8990" fill-rule="evenodd"/><g><g><g><g><path d="M3433.62 308C3424.72 308 3417.5 315.223 3417.5 324.125L3417.5 463.875C3417.5 472.777 3424.72 480 3433.62 480L3465.88 480 3465.88 453.125C3465.88 444.223 3473.1 437 3482 437 3490.9 437 3498.12 444.223 3498.12 453.125L3498.12 480 3530.38 480C3539.28 480 3546.5 472.777 3546.5 463.875L3546.5 324.125C3546.5 315.223 3539.28 308 3530.38 308L3433.62 308ZM3439 388.625C3439 385.669 3441.42 383.25 3444.38 383.25L3455.12 383.25C3458.08 383.25 3460.5 385.669 3460.5 388.625L3460.5 399.375C3460.5 402.331 3458.08 404.75 3455.12 404.75L3444.38 404.75C3441.42 404.75 3439 402.331 3439 399.375L3439 388.625ZM3476.62 383.25 3487.38 383.25C3490.33 383.25 3492.75 385.669 3492.75 388.625L3492.75 399.375C3492.75 402.331 3490.33 404.75 3487.38 404.75L3476.62 404.75C3473.67 404.75 3471.25 402.331 3471.25 399.375L3471.25 388.625C3471.25 385.669 3473.67 383.25 3476.62 383.25ZM3503.5 388.625C3503.5 385.669 3505.92 383.25 3508.88 383.25L3519.63 383.25C3522.58 383.25 3525 385.669 3525 388.625L3525 399.375C3525 402.331 3522.58 404.75 3519.63 404.75L3508.88 404.75C3505.92 404.75 3503.5 402.331 3503.5 399.375L3503.5 388.625ZM3444.38 340.25 3455.12 340.25C3458.08 340.25 3460.5 342.669 3460.5 345.625L3460.5 356.375C3460.5 359.331 3458.08 361.75 3455.12 361.75L3444.38 361.75C3441.42 361.75 3439 359.331 3439 356.375L3439 345.625C3439 342.669 3441.42 340.25 3444.38 340.25ZM3471.25 345.625C3471.25 342.669 3473.67 340.25 3476.62 340.25L3487.38 340.25C3490.33 340.25 3492.75 342.669 3492.75 345.625L3492.75 356.375C3492.75 359.331 3490.33 361.75 3487.38 361.75L3476.62 361.75C3473.67 361.75 3471.25 359.331 3471.25 356.375L3471.25 345.625ZM3508.88 340.25 3519.63 340.25C3522.58 340.25 3525 342.669 3525 345.625L3525 356.375C3525 359.331 3522.58 361.75 3519.63 361.75L3508.88 361.75C3505.92 361.75 3503.5 359.331 3503.5 356.375L3503.5 345.625C3503.5 342.669 3505.92 340.25 3508.88 340.25Z" fill="#FFFFFF"/></g></g></g></g></g></svg>