<svg width="346" height="346" xmlns="http://www.w3.org/2000/svg" xmlns:xlink="http://www.w3.org/1999/xlink" xml:space="preserve" overflow="hidden"><g transform="translate(-2688 -479)"><path d="M2698.5 652C2698.5 562.254 2771.25 489.5 2861 489.5 2950.75 489.5 3023.5 562.254 3023.5 652 3023.5 741.746 2950.75 814.5 2861 814.5 2771.25 814.5 2698.5 741.746 2698.5 652Z" stroke="#000000" stroke-width="20.625" stroke-miterlimit="8" fill="#DA8D39" fill-rule="evenodd"/><g><g><g><path d="M2935.78 657.65C2935.78 639.969 2921.98 625.738 2904.51 624.875L2904.51 611.938 2801.01 611.938 2801.01 711.125C2801.01 715.869 2804.89 719.75 2809.63 719.75L2895.88 719.75C2900.63 719.75 2904.51 715.869 2904.51 711.125L2904.51 690.641C2921.98 689.778 2935.78 675.331 2935.78 657.65ZM2904.73 677.703 2904.73 637.812C2915.08 638.675 2923.05 647.3 2923.05 657.65 2923.05 668 2914.86 676.841 2904.73 677.703Z" fill="#FFFFFF"/><path d="M2848.88 569.891C2850.17 571.184 2850.82 572.694 2850.82 574.419 2850.82 576.144 2850.17 577.869 2848.88 578.947 2847.15 580.672 2847.15 583.259 2848.88 584.984 2849.74 585.847 2850.82 586.278 2851.9 586.278 2852.98 586.278 2854.05 585.847 2854.92 584.984 2857.72 582.181 2859.44 578.3 2859.44 574.203 2859.44 570.106 2857.93 566.441 2854.92 563.638 2854.92 563.638 2854.92 563.638 2854.92 563.638 2852.33 561.05 2852.33 556.953 2854.92 554.581 2856.64 552.856 2856.64 550.269 2854.92 548.544 2853.19 546.819 2850.6 546.819 2848.88 548.544 2842.84 554.366 2842.84 564.069 2848.88 569.891 2848.88 569.891 2848.88 569.891 2848.88 569.891Z" fill="#FFFFFF"/><path d="M2872.38 582.397C2874.97 584.984 2874.97 589.081 2872.38 591.453 2870.66 593.178 2870.66 595.766 2872.38 597.491 2873.24 598.353 2874.32 598.784 2875.4 598.784 2876.48 598.784 2877.56 598.353 2878.42 597.491 2884.24 591.669 2884.24 581.966 2878.42 576.144 2878.42 576.144 2878.42 576.144 2878.42 576.144 2877.13 574.85 2876.48 573.341 2876.48 571.616 2876.48 569.891 2877.13 568.166 2878.42 567.088 2880.14 565.363 2880.14 562.775 2878.42 561.05 2876.69 559.325 2874.11 559.325 2872.38 561.05 2869.58 563.853 2867.85 567.734 2867.85 571.831 2868.07 575.928 2869.58 579.594 2872.38 582.397 2872.38 582.397 2872.38 582.397 2872.38 582.397Z" fill="#FFFFFF"/><path d="M2827.32 582.397C2828.61 583.691 2829.26 585.2 2829.26 586.925 2829.26 588.65 2828.61 590.375 2827.32 591.453 2825.59 593.178 2825.59 595.766 2827.32 597.491 2828.18 598.353 2829.26 598.784 2830.33 598.784 2831.41 598.784 2832.49 598.353 2833.35 597.491 2836.16 594.688 2837.88 590.806 2837.88 586.709 2837.88 582.613 2836.37 578.947 2833.35 575.928L2833.35 575.928C2830.77 573.341 2830.77 569.244 2833.35 566.872 2835.08 565.147 2835.08 562.559 2833.35 560.834 2831.63 559.109 2829.04 559.109 2827.32 560.834 2821.28 567.088 2821.28 576.575 2827.32 582.397 2827.32 582.397 2827.32 582.397 2827.32 582.397Z" fill="#FFFFFF"/></g></g></g></g></svg>