<svg width="346" height="345" xmlns="http://www.w3.org/2000/svg" xmlns:xlink="http://www.w3.org/1999/xlink" xml:space="preserve" overflow="hidden"><g transform="translate(-2686 -856)"><path d="M2696.5 1028.5C2696.5 939.03 2769.25 866.5 2859 866.5 2948.75 866.5 3021.5 939.03 3021.5 1028.5 3021.5 1117.97 2948.75 1190.5 2859 1190.5 2769.25 1190.5 2696.5 1117.97 2696.5 1028.5Z" stroke="#000000" stroke-width="20.625" stroke-miterlimit="8" fill="#DA8D39" fill-rule="evenodd"/><g><g><g><path d="M130.466 161.331 45.3906 161.331C40.4625 161.331 36.3125 165.481 36.3125 170.409 36.3125 175.337 40.4625 179.487 45.3906 179.487L87.4093 179.487 100.378 191.678 113.606 179.487 130.466 179.487C135.394 179.487 139.544 175.337 139.544 170.409 139.544 165.481 135.394 161.331 130.466 161.331Z" fill="#FFFFFF" transform="matrix(1 0 0 1 2734 891)"/><path d="M99.8593 205.684 81.9625 189.084 35.7937 189.084 35.7937 201.275C35.7937 208.019 41.2406 213.466 47.9843 213.466L127.094 213.466C133.837 213.466 139.284 208.019 139.284 201.275L139.284 189.084 118.016 189.084 99.8593 205.684Z" fill="#FFFFFF" transform="matrix(1 0 0 1 2734 891)"/><path d="M87.4093 111.531C58.8781 111.531 35.7937 122.425 35.7937 150.956L139.025 150.956C139.025 122.684 115.941 111.531 87.4093 111.531Z" fill="#FFFFFF" transform="matrix(1 0 0 1 2734 891)"/><path d="M211.65 44.6125C213.725 42.5375 213.725 39.425 211.65 37.35 209.575 35.275 206.462 35.275 204.387 37.35L178.45 64.0656 177.412 73.6625 105.825 73.6625 105.825 81.4437 107.641 103.491C134.356 108.937 149.659 126.056 149.659 151.475L149.659 201.534C149.659 205.944 148.362 210.094 146.028 213.725L189.084 213.725 199.459 81.4437 199.459 73.6625 188.566 73.6625 189.084 68.475 211.65 44.6125Z" fill="#FFFFFF" transform="matrix(1 0 0 1 2734 891)"/></g></g></g></g></svg>