<svg width="346" height="346" xmlns="http://www.w3.org/2000/svg" xmlns:xlink="http://www.w3.org/1999/xlink" xml:space="preserve" overflow="hidden"><g transform="translate(-2903 -210)"><path d="M2913.5 383C2913.5 293.254 2986.25 220.5 3076 220.5 3165.75 220.5 3238.5 293.254 3238.5 383 3238.5 472.746 3165.75 545.5 3076 545.5 2986.25 545.5 2913.5 472.746 2913.5 383Z" stroke="#000000" stroke-width="20.625" stroke-miterlimit="8" fill="#A2895F" fill-rule="evenodd"/><g><g><g><g><path d="M3071.77 296.873 2996.52 329.123C2991.81 331.139 2989.19 336.178 2990.24 341.15 2991.28 346.122 2995.64 349.75 3000.75 349.75L3000.75 352.437C3000.75 356.905 3004.34 360.5 3008.81 360.5L3143.19 360.5C3147.66 360.5 3151.25 356.905 3151.25 352.437L3151.25 349.75C3156.36 349.75 3160.76 346.155 3161.77 341.15 3162.77 336.144 3160.15 331.105 3155.48 329.123L3080.23 296.873C3077.55 295.731 3074.45 295.731 3071.77 296.873ZM3033 371.25 3011.5 371.25 3011.5 437.194C3011.3 437.295 3011.1 437.43 3010.9 437.564L2994.77 448.314C2990.84 450.934 2989.06 455.839 2990.44 460.374 2991.81 464.909 2996.01 468 3000.75 468L3151.25 468C3155.99 468 3160.15 464.909 3161.53 460.374 3162.91 455.839 3161.16 450.934 3157.2 448.314L3141.07 437.564C3140.87 437.43 3140.67 437.329 3140.47 437.194L3140.47 371.25 3119 371.25 3119 435.75 3105.56 435.75 3105.56 371.25 3084.06 371.25 3084.06 435.75 3067.94 435.75 3067.94 371.25 3046.44 371.25 3046.44 435.75 3033 435.75 3033 371.25ZM3076 317.5C3081.94 317.5 3086.75 322.313 3086.75 328.25 3086.75 334.187 3081.94 339 3076 339 3070.06 339 3065.25 334.187 3065.25 328.25 3065.25 322.313 3070.06 317.5 3076 317.5Z" fill="#FFFFFF"/></g></g></g></g></g></svg>