<svg width="346" height="346" xmlns="http://www.w3.org/2000/svg" xmlns:xlink="http://www.w3.org/1999/xlink" xml:space="preserve" overflow="hidden"><g transform="translate(-1889 -479)"><path d="M1899.5 652C1899.5 562.254 1972.25 489.5 2062 489.5 2151.75 489.5 2224.5 562.254 2224.5 652 2224.5 741.746 2151.75 814.5 2062 814.5 1972.25 814.5 1899.5 741.746 1899.5 652Z" stroke="#000000" stroke-width="20.625" stroke-miterlimit="8" fill="#D1686E" fill-rule="evenodd"/><g><g><g><path d="M2062 551.667C2007.06 551.667 1962.67 596.056 1962.67 651 1962.67 705.944 2007.06 750.333 2062 750.333 2116.94 750.333 2161.33 705.944 2161.33 651 2161.33 596.056 2116.94 551.667 2062 551.667ZM2062 768.958C1996.81 768.958 1944.04 716.187 1944.04 651 1944.04 585.812 1996.81 533.042 2062 533.042 2127.19 533.042 2179.96 585.812 2179.96 651 2179.96 716.187 2127.19 768.958 2062 768.958Z" fill="#FFFFFF"/><path d="M2124.08 626.167 2086.83 626.167 2086.83 588.917C2086.83 582.087 2081.25 576.5 2074.42 576.5L2049.58 576.5C2042.75 576.5 2037.17 582.087 2037.17 588.917L2037.17 626.167 1999.92 626.167C1993.09 626.167 1987.5 631.754 1987.5 638.583L1987.5 663.417C1987.5 670.246 1993.09 675.833 1999.92 675.833L2037.17 675.833 2037.17 713.083C2037.17 719.912 2042.75 725.5 2049.58 725.5L2074.42 725.5C2081.25 725.5 2086.83 719.912 2086.83 713.083L2086.83 675.833 2124.08 675.833C2130.91 675.833 2136.5 670.246 2136.5 663.417L2136.5 638.583C2136.5 631.754 2130.91 626.167 2124.08 626.167Z" fill="#FFFFFF"/></g></g></g></g></svg>