<svg width="346" height="346" xmlns="http://www.w3.org/2000/svg" xmlns:xlink="http://www.w3.org/1999/xlink" xml:space="preserve" overflow="hidden"><defs><clipPath id="clip0"><rect x="1578" y="1313" width="171" height="172"/></clipPath><clipPath id="clip1"><rect x="1578" y="1313" width="171" height="172"/></clipPath><clipPath id="clip2"><rect x="1578" y="1313" width="171" height="172"/></clipPath></defs><g transform="translate(-1491 -1227)"><path d="M1501.5 1400C1501.5 1310.25 1574.25 1237.5 1664 1237.5 1753.75 1237.5 1826.5 1310.25 1826.5 1400 1826.5 1489.75 1753.75 1562.5 1664 1562.5 1574.25 1562.5 1501.5 1489.75 1501.5 1400Z" stroke="#000000" stroke-width="20.625" stroke-miterlimit="8" fill="#9A90D8" fill-rule="evenodd"/><g clip-path="url(#clip0)"><g clip-path="url(#clip1)"><g clip-path="url(#clip2)"><path d="M639.539 2076.37C639.539 2070.45 644.314 2065.68 650.227 2065.68L799.852 2065.68C805.765 2065.68 810.539 2070.45 810.539 2076.37 810.539 2082.28 805.765 2087.05 799.852 2087.05L799.852 2215.3C805.765 2215.3 810.539 2220.08 810.539 2225.99 810.539 2231.9 805.765 2236.68 799.852 2236.68L741.072 2236.68 741.072 2220.65C741.072 2211.8 733.89 2204.62 725.039 2204.62 716.188 2204.62 709.006 2211.8 709.006 2220.65L709.006 2236.68 650.227 2236.68C644.314 2236.68 639.539 2231.9 639.539 2225.99 639.539 2220.08 644.314 2215.3 650.227 2215.3L650.227 2087.05C644.314 2087.05 639.539 2082.28 639.539 2076.37ZM671.602 2103.09 671.602 2113.77C671.602 2116.71 674.006 2119.12 676.947 2119.12L687.631 2119.12C690.573 2119.12 692.977 2116.71 692.977 2113.77L692.977 2103.09C692.977 2100.14 690.573 2097.74 687.631 2097.74L676.947 2097.74C674.006 2097.74 671.602 2100.14 671.602 2103.09ZM719.697 2097.74C716.756 2097.74 714.352 2100.14 714.352 2103.09L714.352 2113.77C714.352 2116.71 716.756 2119.12 719.697 2119.12L730.381 2119.12C733.323 2119.12 735.727 2116.71 735.727 2113.77L735.727 2103.09C735.727 2100.14 733.323 2097.74 730.381 2097.74L719.697 2097.74ZM757.102 2103.09 757.102 2113.77C757.102 2116.71 759.506 2119.12 762.447 2119.12L773.131 2119.12C776.073 2119.12 778.477 2116.71 778.477 2113.77L778.477 2103.09C778.477 2100.14 776.073 2097.74 773.131 2097.74L762.447 2097.74C759.506 2097.74 757.102 2100.14 757.102 2103.09ZM676.947 2129.8C674.006 2129.8 671.602 2132.21 671.602 2135.15L671.602 2145.84C671.602 2148.77 674.006 2151.18 676.947 2151.18L687.631 2151.18C690.573 2151.18 692.977 2148.77 692.977 2145.84L692.977 2135.15C692.977 2132.21 690.573 2129.8 687.631 2129.8L676.947 2129.8ZM714.352 2135.15 714.352 2145.84C714.352 2148.77 716.756 2151.18 719.697 2151.18L730.381 2151.18C733.323 2151.18 735.727 2148.77 735.727 2145.84L735.727 2135.15C735.727 2132.21 733.323 2129.8 730.381 2129.8L719.697 2129.8C716.756 2129.8 714.352 2132.21 714.352 2135.15ZM762.447 2129.8C759.506 2129.8 757.102 2132.21 757.102 2135.15L757.102 2145.84C757.102 2148.77 759.506 2151.18 762.447 2151.18L773.131 2151.18C776.073 2151.18 778.477 2148.77 778.477 2145.84L778.477 2135.15C778.477 2132.21 776.073 2129.8 773.131 2129.8L762.447 2129.8ZM749.085 2193.93C753.528 2193.93 757.201 2190.29 756.1 2185.98 752.56 2172.12 740.002 2161.87 725.039 2161.87 710.077 2161.87 697.484 2172.12 693.979 2185.98 692.878 2190.25 696.585 2193.93 700.993 2193.93L749.085 2193.93Z" fill="#FFFFFF" transform="matrix(1 0 0 1.00585 938.461 -764.758)"/></g></g></g></g></svg>