<svg width="346" height="346" xmlns="http://www.w3.org/2000/svg" xmlns:xlink="http://www.w3.org/1999/xlink" xml:space="preserve" overflow="hidden"><g transform="translate(-1491 -853)"><path d="M1501.5 1026C1501.5 936.254 1574.25 863.5 1664 863.5 1753.75 863.5 1826.5 936.254 1826.5 1026 1826.5 1115.75 1753.75 1188.5 1664 1188.5 1574.25 1188.5 1501.5 1115.75 1501.5 1026Z" stroke="#000000" stroke-width="20.625" stroke-miterlimit="8" fill="#B59468" fill-rule="evenodd"/><g><g><g><g><path d="M170.94 75.8515C170.94 81.1952 166.487 85.3812 161.44 85.3812L151.94 85.3812 152.148 132.94C152.148 133.742 152.089 134.544 152 135.345L152 140.125C152 146.686 146.686 152 140.125 152L135.375 152C135.048 152 134.722 152 134.395 151.97 133.98 152 133.564 152 133.148 152L123.5 152 116.375 152C109.814 152 104.5 146.686 104.5 140.125L104.5 133 104.5 114C104.5 108.745 100.255 104.5 94.9999 104.5L75.9999 104.5C70.7452 104.5 66.4999 108.745 66.4999 114L66.4999 133 66.4999 140.125C66.4999 146.686 61.1859 152 54.6249 152L47.5 152 38.0297 152C37.5843 152 37.139 151.97 36.6937 151.94 36.3375 151.97 35.9812 152 35.625 152L30.875 152C24.314 152 19 146.686 19 140.125L19 106.875C19 106.608 19 106.311 19.0297 106.044L19.0297 85.3812 9.49999 85.3812C4.15625 85.3812 0 81.2249 0 75.8515 0 73.1796 0.890624 70.8046 2.96875 68.7265L79.0874 2.375C81.1655 0.296875 83.5405 0 85.6187 0 87.6968 0 90.0718 0.593749 91.853 2.07812L167.675 68.7265C170.05 70.8046 171.237 73.1796 170.94 75.8515Z" fill="#FFFFFF" transform="matrix(1 0 0 1.00585 1578 948.556)"/></g></g></g></g></g></svg>