<svg width="346" height="345" xmlns="http://www.w3.org/2000/svg" xmlns:xlink="http://www.w3.org/1999/xlink" xml:space="preserve" overflow="hidden"><g transform="translate(-685 -856)"><path d="M695.5 1028.5C695.5 939.03 768.254 866.5 858 866.5 947.746 866.5 1020.5 939.03 1020.5 1028.5 1020.5 1117.97 947.746 1190.5 858 1190.5 768.254 1190.5 695.5 1117.97 695.5 1028.5Z" stroke="#000000" stroke-width="20.625" stroke-miterlimit="8" fill="#7FB360" fill-rule="evenodd"/><g><g><g><g><path d="M85.4999 10.6875C89.6747 10.6875 93.5489 12.825 95.7866 16.3652L168.128 131.723C169.998 134.696 171 138.136 171 141.643 171 151.963 162.65 160.312 152.33 160.312L18.6697 160.312C8.3496 160.312 0 151.963 0 141.643 0 138.136 1.00195 134.696 2.87226 131.723L75.2132 16.3652C77.4175 12.825 81.3251 10.6875 85.4999 10.6875ZM107.209 74.8124 85.4999 40.2117 59.0818 82.3271 65.1937 90.4763C67.3312 93.3151 71.6062 93.3151 73.7437 90.4763L82.2937 79.0874C84.2976 76.3821 87.4704 74.8124 90.8437 74.8124L107.209 74.8124Z" fill="#FFFFFF" transform="matrix(1 0 0 1.00585 772 942)"/></g></g></g></g></g></svg>