<svg width="346" height="346" xmlns="http://www.w3.org/2000/svg" xmlns:xlink="http://www.w3.org/1999/xlink" xml:space="preserve" overflow="hidden"><defs><clipPath id="clip0"><rect x="2608" y="295" width="171" height="173"/></clipPath><clipPath id="clip1"><rect x="2608" y="295" width="171" height="173"/></clipPath><clipPath id="clip2"><rect x="2608" y="295" width="171" height="173"/></clipPath><clipPath id="clip3"><rect x="2608" y="295" width="171" height="173"/></clipPath></defs><g transform="translate(-2521 -210)"><path d="M2531.5 383C2531.5 293.254 2604.25 220.5 2694 220.5 2783.75 220.5 2856.5 293.254 2856.5 383 2856.5 472.746 2783.75 545.5 2694 545.5 2604.25 545.5 2531.5 472.746 2531.5 383Z" stroke="#000000" stroke-width="20.625" stroke-miterlimit="8" fill="#BD91BD" fill-rule="evenodd"/><g clip-path="url(#clip0)"><g clip-path="url(#clip1)"><g clip-path="url(#clip2)"><g clip-path="url(#clip3)"><path d="M81.2917 0.868358 6.47929 32.9308C1.80351 34.9347-0.801562 39.9445 0.233789 44.8875 1.26914 49.8304 5.61093 53.4374 10.6875 53.4374L10.6875 56.1093C10.6875 60.5513 14.2611 64.1249 18.7031 64.1249L152.297 64.1249C156.739 64.1249 160.312 60.5513 160.312 56.1093L160.312 53.4374C165.389 53.4374 169.764 49.8638 170.766 44.8875 171.768 39.9111 169.163 34.9013 164.521 32.9308L89.7081 0.868358C87.0362-0.267187 83.9636-0.267187 81.2917 0.868358ZM42.75 74.8124 21.375 74.8124 21.375 140.373C21.1746 140.474 20.9742 140.607 20.7738 140.741L4.74257 151.428C0.83496 154.033-0.935155 158.91 0.434179 163.418 1.80351 167.927 5.97831 171 10.6875 171L160.312 171C165.022 171 169.163 167.927 170.532 163.418 171.902 158.91 170.165 154.033 166.224 151.428L150.193 140.741C149.992 140.607 149.792 140.507 149.591 140.373L149.591 74.8124 128.25 74.8124 128.25 138.937 114.891 138.937 114.891 74.8124 93.5155 74.8124 93.5155 138.937 77.4843 138.937 77.4843 74.8124 56.1093 74.8124 56.1093 138.937 42.75 138.937 42.75 74.8124ZM85.4999 21.375C91.4024 21.375 96.1874 26.1599 96.1874 32.0625 96.1874 37.965 91.4024 42.75 85.4999 42.75 79.5974 42.75 74.8124 37.965 74.8124 32.0625 74.8124 26.1599 79.5974 21.375 85.4999 21.375Z" fill="#FFFFFF" transform="matrix(1 0 0 1.00585 2608 296)"/></g></g></g></g></g></svg>