<svg width="435" height="435" xmlns="http://www.w3.org/2000/svg" xmlns:xlink="http://www.w3.org/1999/xlink" xml:space="preserve" overflow="hidden"><defs><filter id="fx0" x="-10%" y="-10%" width="120%" height="120%" filterUnits="userSpaceOnUse" primitiveUnits="userSpaceOnUse"><feComponentTransfer color-interpolation-filters="sRGB"><feFuncR type="discrete" tableValues="0 0"/><feFuncG type="discrete" tableValues="0 0"/><feFuncB type="discrete" tableValues="0 0"/><feFuncA type="linear" slope="0.74902" intercept="0"/></feComponentTransfer><feGaussianBlur stdDeviation="7.63889 7.63889"/></filter></defs><g transform="translate(-1379 -1526)"><g filter="url(#fx0)" transform="translate(1379 1526)"><g><path d="M38.7501 217.5C38.7501 118.779 118.779 38.7499 217.5 38.7499 316.221 38.7499 396.25 118.779 396.25 217.5 396.25 316.221 316.221 396.25 217.5 396.25 118.779 396.25 38.7501 316.221 38.7501 217.5Z" stroke="#FFFFFF" stroke-width="30" stroke-miterlimit="8" fill="#ADACAA" fill-rule="evenodd"/><path d="M146.55 216.95C146.55 177.462 178.562 145.45 218.05 145.45 257.538 145.45 289.55 177.462 289.55 216.95 289.55 256.438 257.538 288.45 218.05 288.45 178.562 288.45 146.55 256.438 146.55 216.95Z" fill="#FFFFFF" fill-rule="evenodd"/></g></g><path d="M1434 1743.5C1434 1653.75 1506.75 1581 1596.5 1581 1686.25 1581 1759 1653.75 1759 1743.5 1759 1833.25 1686.25 1906 1596.5 1906 1506.75 1906 1434 1833.25 1434 1743.5Z" stroke="#FFFFFF" stroke-width="27.5" stroke-miterlimit="8" fill="#ADACAA" fill-rule="evenodd"/><path d="M1532 1743C1532 1707.1 1561.1 1678 1597 1678 1632.9 1678 1662 1707.1 1662 1743 1662 1778.9 1632.9 1808 1597 1808 1561.1 1808 1532 1778.9 1532 1743Z" fill="#FFFFFF" fill-rule="evenodd"/></g></svg>