<svg width="346" height="346" xmlns="http://www.w3.org/2000/svg" xmlns:xlink="http://www.w3.org/1999/xlink" xml:space="preserve" overflow="hidden"><g transform="translate(-685 -479)"><path d="M695.5 652C695.5 562.254 768.254 489.5 858 489.5 947.746 489.5 1020.5 562.254 1020.5 652 1020.5 741.746 947.746 814.5 858 814.5 768.254 814.5 695.5 741.746 695.5 652Z" stroke="#000000" stroke-width="20.625" stroke-miterlimit="8" fill="#7FB360" fill-rule="evenodd"/><g><g><g><g><path d="M70.337 1.97051 20.707 56.5769C19.4045 57.9796 18.7031 59.8499 18.7031 61.7536 18.7031 66.0286 22.1431 69.4687 26.4181 69.4687L34.7343 69.4687 10.2199 93.9831C8.81718 95.3858 8.01562 97.323 8.01562 99.3269 8.01562 103.502 11.3889 106.875 15.5637 106.875L26.7187 106.875 1.80351 136.766C0.63457 138.169 0 139.939 0 141.776 0 146.118 3.50683 149.625 7.84863 149.625L64.1249 149.625 64.1249 160.312C64.1249 166.224 68.9009 171 74.8124 171 80.7239 171 85.4999 166.224 85.4999 160.312L85.4999 149.625 141.776 149.625C146.118 149.625 149.625 146.118 149.625 141.776 149.625 139.939 148.99 138.169 147.821 136.766L122.906 106.875 134.061 106.875C138.236 106.875 141.609 103.502 141.609 99.3269 141.609 97.323 140.808 95.3858 139.405 93.9831L114.891 69.4687 123.207 69.4687C127.448 69.4687 130.922 66.0286 130.922 61.7536 130.922 59.8499 130.22 57.9796 128.918 56.5769L79.2878 1.97051C78.1523 0.701366 76.5157 0 74.8124 0 73.1091 0 71.4726 0.701366 70.337 1.97051Z" fill="#FFFFFF" transform="matrix(1 0 0 1.00585 782.688 565)"/></g></g></g></g></g></svg>