<svg width="346" height="346" xmlns="http://www.w3.org/2000/svg" xmlns:xlink="http://www.w3.org/1999/xlink" xml:space="preserve" overflow="hidden"><g transform="translate(-1491 -479)"><path d="M1501.5 652C1501.5 562.254 1574.25 489.5 1664 489.5 1753.75 489.5 1826.5 562.254 1826.5 652 1826.5 741.746 1753.75 814.5 1664 814.5 1574.25 814.5 1501.5 741.746 1501.5 652Z" stroke="#000000" stroke-width="20.625" stroke-miterlimit="8" fill="#729AAC" fill-rule="evenodd"/><g><g><g><g><path d="M56.9999 9.49999C56.9999 4.24531 61.2453 0 66.4999 0L104.5 0C109.755 0 114 4.24531 114 9.49999L114 19 128.25 19C136.117 19 142.5 25.3828 142.5 33.25L142.5 71.2499 155.681 75.6437C162.539 77.9296 164.439 86.7765 159.095 91.6452L129.111 119.136C124.301 121.926 118.809 123.619 114 123.619 108.181 123.619 101.887 121.333 96.4249 117.592 89.864 112.991 81.1062 112.991 74.5452 117.592 69.4687 121.095 63.264 123.619 56.9703 123.619 52.1609 123.619 46.6687 121.926 41.8593 119.136L11.875 91.6452C6.53124 86.7468 8.43124 77.9296 15.289 75.6437L28.5 71.2499 28.5 33.25C28.5 25.3828 34.8828 19 42.75 19L56.9999 19 56.9999 9.49999ZM47.5 64.9265 79.503 54.2687C83.3921 52.9624 87.6077 52.9624 91.5265 54.2687L123.5 64.9265 123.5 38 47.5 38 47.5 64.9265ZM90.9921 125.251C97.6718 129.853 105.836 133 114 133 121.986 133 130.447 129.794 136.978 125.251L136.978 125.251C140.511 122.728 145.32 122.936 148.615 125.756 152.89 129.289 158.264 131.99 163.637 133.237 168.744 134.425 171.92 139.531 170.733 144.637 169.545 149.744 164.439 152.92 159.333 151.733 152.059 150.04 146.003 146.834 142.055 144.311 133.445 148.942 123.797 152 114 152 104.53 152 96.0093 149.061 90.1312 146.389 88.4093 145.587 86.8359 144.815 85.4999 144.103 84.164 144.815 82.6202 145.617 80.8687 146.389 74.9906 149.061 66.4702 152 56.9999 152 47.2031 152 37.5546 148.942 28.9453 144.34 24.9672 146.834 18.9406 150.07 11.6672 151.762 6.56093 152.95 1.45469 149.773 0.267187 144.667-0.920312 139.561 2.25625 134.455 7.36249 133.267 12.7359 132.02 18.1094 129.319 22.3844 125.786 25.6797 122.995 30.489 122.787 34.0218 125.281L34.0218 125.281C40.5828 129.794 49.014 133 56.9999 133 65.164 133 73.328 129.853 80.0077 125.251 83.303 122.906 87.6968 122.906 90.9921 125.251Z" fill="#FFFFFF" transform="matrix(1 0 0 1.00585 1578 574.556)"/></g></g></g></g></g></svg>