<svg width="346" height="346" xmlns="http://www.w3.org/2000/svg" xmlns:xlink="http://www.w3.org/1999/xlink" xml:space="preserve" overflow="hidden"><defs><clipPath id="clip0"><rect x="2775" y="189" width="171" height="172"/></clipPath><clipPath id="clip1"><rect x="2775" y="189" width="171" height="172"/></clipPath><clipPath id="clip2"><rect x="2775" y="189" width="171" height="172"/></clipPath><clipPath id="clip3"><rect x="2775" y="189" width="171" height="172"/></clipPath></defs><g transform="translate(-2688 -102)"><path d="M2698.5 275C2698.5 185.254 2771.25 112.5 2861 112.5 2950.75 112.5 3023.5 185.254 3023.5 275 3023.5 364.746 2950.75 437.5 2861 437.5 2771.25 437.5 2698.5 364.746 2698.5 275Z" stroke="#000000" stroke-width="20.625" stroke-miterlimit="8" fill="#DA8D39" fill-rule="evenodd"/><g clip-path="url(#clip0)"><g clip-path="url(#clip1)"><g clip-path="url(#clip2)"><g clip-path="url(#clip3)"><path d="M82.0933 73.7771C77.2505 67.899 74.8124 60.6849 74.8124 53.4708 74.8124 26.7187 106.875 0 138.937 0 156.639 0 171 14.3613 171 32.0625 171 64.1249 144.281 96.1874 117.496 96.1874 110.282 96.1874 103.067 93.7493 97.1894 88.9066L18.2355 167.86C14.0607 172.035 7.28085 172.035 3.10605 167.86-1.06875 163.686-1.06875 156.906 3.10605 152.731L82.0933 73.7771Z" fill="#FFFFFF" transform="matrix(1 0 0 1.00585 2775 189)"/></g></g></g></g></g></svg>