<svg width="346" height="346" xmlns="http://www.w3.org/2000/svg" xmlns:xlink="http://www.w3.org/1999/xlink" xml:space="preserve" overflow="hidden"><g transform="translate(-2686 -1609)"><path d="M2696.5 1782C2696.5 1692.25 2769.25 1619.5 2859 1619.5 2948.75 1619.5 3021.5 1692.25 3021.5 1782 3021.5 1871.75 2948.75 1944.5 2859 1944.5 2769.25 1944.5 2696.5 1871.75 2696.5 1782Z" stroke="#000000" stroke-width="20.625" stroke-miterlimit="8" fill="#DA8D39" fill-rule="evenodd"/><g><g><g><g><path d="M2836.5 1732.62C2836.5 1720.77 2846.14 1711.12 2858 1711.12 2869.86 1711.12 2879.5 1720.77 2879.5 1732.62L2879.5 1748.75 2836.5 1748.75 2836.5 1732.62ZM2820.38 1748.75 2798.88 1748.75C2789.97 1748.75 2782.75 1755.97 2782.75 1764.88L2782.75 1834.75C2782.75 1852.55 2797.2 1867 2815 1867L2901 1867C2918.8 1867 2933.25 1852.55 2933.25 1834.75L2933.25 1764.88C2933.25 1755.97 2926.03 1748.75 2917.12 1748.75L2895.62 1748.75 2895.62 1732.62C2895.62 1711.83 2878.79 1695 2858 1695 2837.21 1695 2820.38 1711.83 2820.38 1732.62L2820.38 1748.75ZM2828.44 1764.88C2832.89 1764.88 2836.5 1768.48 2836.5 1772.94 2836.5 1777.39 2832.89 1781 2828.44 1781 2823.98 1781 2820.38 1777.39 2820.38 1772.94 2820.38 1768.48 2823.98 1764.88 2828.44 1764.88ZM2879.5 1772.94C2879.5 1768.48 2883.11 1764.88 2887.56 1764.88 2892.02 1764.88 2895.62 1768.48 2895.62 1772.94 2895.62 1777.39 2892.02 1781 2887.56 1781 2883.11 1781 2879.5 1777.39 2879.5 1772.94Z" fill="#FFFFFF"/></g></g></g></g></g></svg>