<svg width="346" height="346" xmlns="http://www.w3.org/2000/svg" xmlns:xlink="http://www.w3.org/1999/xlink" xml:space="preserve" overflow="hidden"><defs><clipPath id="clip0"><rect x="2372" y="189" width="174" height="172"/></clipPath><clipPath id="clip1"><rect x="2372" y="189" width="174" height="172"/></clipPath><clipPath id="clip2"><rect x="2372" y="189" width="174" height="172"/></clipPath><clipPath id="clip3"><rect x="2372" y="189" width="174" height="172"/></clipPath></defs><g transform="translate(-2287 -102)"><path d="M2297.5 275C2297.5 185.254 2370.25 112.5 2460 112.5 2549.75 112.5 2622.5 185.254 2622.5 275 2622.5 364.746 2549.75 437.5 2460 437.5 2370.25 437.5 2297.5 364.746 2297.5 275Z" stroke="#000000" stroke-width="20.625" stroke-miterlimit="8" fill="#3FA9E8" fill-rule="evenodd"/><g clip-path="url(#clip0)"><g clip-path="url(#clip1)"><g clip-path="url(#clip2)"><g clip-path="url(#clip3)"><path d="M2491.25 205.125C2491.25 196.219 2484.03 189 2475.12 189 2466.22 189 2459 196.219 2459 205.125 2459 214.031 2466.22 221.25 2475.12 221.25 2484.03 221.25 2491.25 214.031 2491.25 205.125ZM2425.98 247.957C2429.3 244.631 2433.84 242.75 2438.58 242.75 2439.21 242.75 2439.85 242.784 2440.46 242.851L2429.98 274.328C2426.85 283.734 2430.55 294.081 2438.98 299.355L2467.94 317.462 2459.4 347.294C2457.76 353.005 2461.08 358.951 2466.79 360.597 2472.5 362.243 2478.45 358.917 2480.1 353.206L2489.74 319.478C2491.72 312.558 2488.86 305.167 2482.78 301.371L2463.7 289.445 2474.08 261.764 2475.8 265.896C2480.84 277.923 2492.56 285.75 2505.59 285.75L2512.75 285.75C2518.7 285.75 2523.5 280.946 2523.5 275 2523.5 269.054 2518.7 264.25 2512.75 264.25L2505.59 264.25C2501.26 264.25 2497.33 261.63 2495.68 257.632L2493.57 252.593C2488.66 240.802 2478.75 231.798 2466.53 228.036L2450.17 222.997C2446.44 221.855 2442.54 221.25 2438.61 221.25 2428.19 221.25 2418.18 225.382 2410.83 232.773L2403.03 240.533C2398.83 244.732 2398.83 251.552 2403.03 255.751 2407.23 259.95 2414.05 259.95 2418.25 255.751L2426.01 247.991ZM2414.39 307.25 2394.5 307.25C2388.55 307.25 2383.75 312.054 2383.75 318 2383.75 323.946 2388.55 328.75 2394.5 328.75L2417.88 328.75C2424.26 328.75 2430.04 324.987 2432.63 319.176L2436.49 310.475 2433.3 308.459C2427.42 304.798 2423.05 299.456 2420.57 293.376L2414.39 307.25Z" fill="#FFFFFF"/></g></g></g></g></g></svg>