<svg width="345" height="345" xmlns="http://www.w3.org/2000/svg" xmlns:xlink="http://www.w3.org/1999/xlink" xml:space="preserve" overflow="hidden"><g transform="translate(-3692 -1018)"><path d="M3702.5 1190.5C3702.5 1101.03 3775.03 1028.5 3864.5 1028.5 3953.97 1028.5 4026.5 1101.03 4026.5 1190.5 4026.5 1279.97 3953.97 1352.5 3864.5 1352.5 3775.03 1352.5 3702.5 1279.97 3702.5 1190.5Z" stroke="#000000" stroke-width="20.625" stroke-miterlimit="8" fill="#BD91BD" fill-rule="evenodd"/><g><g><g><g><path d="M3784.25 1228.09C3797.8 1239.82 3819.34 1254.9 3838.23 1252.04 3840.21 1251.75 3842.16 1251.23 3844.08 1250.58 3841.09 1246.58 3838.46 1242.65 3836.21 1239.07 3829.09 1227.7 3826.85 1214.63 3827.79 1202.15 3821.1 1203.49 3815.05 1206.38 3810.02 1210.41 3807.91 1212.1 3804.72 1210.83 3805.21 1208.13 3807.29 1197.25 3815.93 1188.34 3827.37 1186.59 3828.22 1186.46 3829.09 1186.36 3829.94 1186.33L3836.25 1143.65C3836.9 1139.17 3838.84 1133.03 3844.37 1128.74 3850.42 1124.09 3860.91 1118.82 3878.04 1117.26 3877.78 1117.04 3877.52 1116.81 3877.26 1116.58 3870.7 1111.51 3853.73 1103.06 3817.1 1108.62 3780.48 1114.18 3766.66 1127.27 3761.85 1134.07 3760 1136.67 3759.74 1139.95 3760.2 1143.13L3768.06 1196.53C3769.85 1208.65 3775.05 1220.13 3784.25 1228.12ZM3812.75 1156.72C3814.18 1155.71 3816.26 1156.07 3816.58 1157.79 3816.61 1157.95 3816.65 1158.15 3816.68 1158.31 3817.72 1165.4 3812.91 1171.96 3805.92 1173.03 3798.94 1174.11 3792.44 1169.2 3791.4 1162.15 3791.36 1161.98 3791.36 1161.79 3791.33 1161.63 3791.14 1159.87 3793.02 1158.9 3794.68 1159.45 3797.6 1160.42 3800.79 1160.72 3804 1160.23 3807.22 1159.74 3810.21 1158.51 3812.72 1156.72ZM3845.02 1233.55C3854.57 1248.79 3870.86 1269.59 3889.74 1272.45 3908.62 1275.31 3930.2 1260.26 3943.72 1248.5 3952.92 1240.54 3958.12 1229.06 3959.91 1216.91L3967.77 1163.51C3968.23 1160.33 3967.97 1157.04 3966.11 1154.44 3961.3 1147.65 3947.49 1134.55 3910.86 1129 3874.24 1123.44 3857.3 1131.89 3850.74 1136.96 3848.21 1138.91 3847 1141.96 3846.55 1145.15L3838.68 1198.55C3836.9 1210.67 3838.55 1223.18 3845.05 1233.55ZM3891.46 1183.27C3888.96 1181.48 3886 1180.25 3882.75 1179.76 3879.5 1179.27 3876.32 1179.57 3873.43 1180.54 3871.77 1181.09 3869.88 1180.12 3870.08 1178.36 3870.11 1178.2 3870.11 1178.01 3870.14 1177.84 3871.18 1170.76 3877.68 1165.88 3884.67 1166.96 3891.66 1168.03 3896.47 1174.59 3895.43 1181.68 3895.4 1181.84 3895.36 1182.04 3895.33 1182.2 3895 1183.92 3892.93 1184.28 3891.49 1183.27ZM3935.73 1188.31C3935.4 1190.03 3933.32 1190.39 3931.89 1189.38 3929.39 1187.59 3926.43 1186.36 3923.18 1185.87 3919.93 1185.38 3916.75 1185.68 3913.85 1186.65 3912.2 1187.2 3910.31 1186.23 3910.51 1184.47 3910.54 1184.31 3910.54 1184.12 3910.57 1183.95 3911.61 1176.87 3918.11 1171.99 3925.1 1173.07 3932.09 1174.14 3936.9 1180.7 3935.86 1187.79 3935.82 1187.95 3935.79 1188.15 3935.76 1188.31ZM3932.25 1220.61C3925.88 1235.14 3910.54 1244.18 3894.29 1241.71 3878.04 1239.24 3865.98 1226.04 3864.06 1210.28 3863.74 1207.58 3866.96 1206.35 3869 1208.1 3876.77 1214.86 3886.43 1219.57 3897.28 1221.2 3908.14 1222.82 3918.76 1221.23 3928.12 1217.04 3930.59 1215.93 3933.32 1218.08 3932.22 1220.58Z" fill="#FFFFFF"/></g></g></g></g></g></svg>