<svg width="346" height="346" xmlns="http://www.w3.org/2000/svg" xmlns:xlink="http://www.w3.org/1999/xlink" xml:space="preserve" overflow="hidden"><g transform="translate(-1384 -904)"><path d="M1394.5 1077C1394.5 987.254 1467.25 914.5 1557 914.5 1646.75 914.5 1719.5 987.254 1719.5 1077 1719.5 1166.75 1646.75 1239.5 1557 1239.5 1467.25 1239.5 1394.5 1166.75 1394.5 1077Z" stroke="#000000" stroke-width="20.625" stroke-miterlimit="8" fill="#80AAF8" fill-rule="evenodd"/><g><g><g><g><path d="M1556 1015.8C1553.82 1015.8 1551.67 1016.18 1549.63 1016.9L1474.25 1044.13C1471.69 1045.07 1470 1047.49 1470 1050.2 1470 1052.91 1471.69 1055.33 1474.25 1056.27L1489.81 1061.89C1485.4 1068.82 1482.9 1077.02 1482.9 1085.65L1482.9 1093.2C1482.9 1100.83 1480 1108.71 1476.91 1114.91 1475.16 1118.41 1473.17 1121.85 1470.86 1125.02 1470 1126.18 1469.76 1127.68 1470.24 1129.05 1470.73 1130.42 1471.85 1131.44 1473.25 1131.79L1490.45 1136.09C1491.58 1136.39 1492.79 1136.17 1493.78 1135.55 1494.78 1134.94 1495.48 1133.92 1495.69 1132.76 1498 1121.26 1496.85 1110.94 1495.13 1103.55 1494.27 1099.73 1493.11 1095.83 1491.5 1092.26L1491.5 1085.65C1491.5 1077.53 1494.24 1069.87 1499 1063.74 1502.46 1059.58 1506.95 1056.22 1512.22 1054.15L1554.41 1037.57C1556.62 1036.71 1559.12 1037.78 1559.98 1039.99 1560.84 1042.19 1559.76 1044.69 1557.56 1045.55L1515.36 1062.13C1512.03 1063.45 1509.1 1065.46 1506.71 1067.94L1549.6 1083.42C1551.65 1084.14 1553.8 1084.52 1555.97 1084.52 1558.15 1084.52 1560.3 1084.14 1562.34 1083.42L1637.75 1056.27C1640.31 1055.36 1642 1052.91 1642 1050.2 1642 1047.49 1640.31 1045.07 1637.75 1044.13L1562.37 1016.9C1560.33 1016.18 1558.18 1015.8 1556 1015.8ZM1504.4 1116.85C1504.4 1126.34 1527.51 1136.2 1556 1136.2 1584.49 1136.2 1607.6 1126.34 1607.6 1116.85L1603.49 1077.77 1565.27 1091.59C1562.29 1092.66 1559.14 1093.2 1556 1093.2 1552.86 1093.2 1549.68 1092.66 1546.73 1091.59L1508.51 1077.77 1504.4 1116.85Z" stroke="#000000" stroke-width="0.26875" fill="#FFFFFF"/></g></g></g></g></g></svg>